<?xml version="1.0" encoding="utf-8"?>
<!-- Generator: Adobe Illustrator 19.0.0, SVG Export Plug-In . SVG Version: 6.00 Build 0)  -->
<svg version="1.1" id="Layer_1" xmlns="http://www.w3.org/2000/svg" xmlns:xlink="http://www.w3.org/1999/xlink" x="0px" y="0px"
	 viewBox="0 0 500 500" style="enable-background:new 0 0 500 500;" xml:space="preserve">
<style type="text/css">
	.st0{fill:#EE0000;}
</style>
<g id="XMLID_1_">
	<path id="XMLID_3_" d="M67.5,215.6c8.4,0,16.8-0.1,25.2,0c10,0.6,18.8,7.3,23.5,15.9c4.8,9.1,9,18.5,13.9,27.5
		c1.6,3.2,4.8,5.4,8.4,5.5c-0.1-16.3-0.1-32.7,0-49c7.4,0.1,14.7,0,22.1,0c0,7.1,0,14.2-0.1,21.4c-5.1,2-9.4,6.5-9.5,12.2
		c-0.7,6.2,3.9,11.8,9.5,13.7c0.1,7.2,0,14.3,0.1,21.5c-7.3,0.1-14.7,0-22,0.1c-8.5,0.4-16.9-3.5-22.3-9.9
		c-6-7.3-9.1-16.5-13.6-24.6c-3.1-5.7-5.3-14.3-13.1-14.6c0,16.4-0.1,32.7,0.1,49.1c-7.4,0.1-14.7,0.1-22.1,0
		C67.6,261.4,67.6,238.5,67.5,215.6z"/>
	<path id="XMLID_6_" d="M167.1,215.7c62.4,0,124.7-0.2,187.1,0.1c9.3,16.9,18.8,33.7,28,50.6c9.2-16.8,17.7-34,26.8-50.8
		c7.8,0.1,15.6-0.1,23.5,0.2c-1.3,1.9-2.6,3.8-3.7,5.8c-11,21-22.1,41.9-33.2,62.8c-8.9,0-17.9,0-26.8,0
		c-9.7-17.5-19.6-35-29.2-52.5c-9.8-0.1-19.7,0-29.5,0c0,17.5,0.1,35,0,52.5c-7.1,0-14.1,0-21.2,0c0-17.5,0.1-35,0-52.6
		c-10.8,0.1-21.7,0-32.5,0.1c2,7.5,1.8,15.3,1.5,23c-0.3,7.8-2.4,16.2-8.2,21.8c-5.6,5.8-14,7.8-21.8,7.7
		c-20.2-0.1-40.4,0.1-60.5-0.1c0.1-7.2,0-14.3,0.1-21.4c4.8-1.9,8.9-5.8,9.4-11.2c1-6.5-3.5-12.6-9.4-14.7
		C167.1,229.9,167.3,222.8,167.1,215.7 M188.6,232c0.2,12,0.1,23.9,0.1,35.9c12.1,0.2,24.2,0.1,36.2,0.1c4.7,0.2,10.3-2.4,11-7.6
		c0.4-6.7,0.3-13.4,0.1-20.1c-0.5-5.4-6.1-8.4-11.1-8.3C212.8,231.9,200.7,231.7,188.6,232z"/>
	<path id="XMLID_7_" class="st0" d="M151,249.2c0.1-5.7,4.4-10.3,9.5-12.2c2.2-0.2,4.5-0.2,6.7,0c5.9,2.2,10.4,8.2,9.4,14.7
		c-0.4,5.3-4.6,9.3-9.4,11.2c-2.2,0.2-4.5,0.2-6.7,0C154.9,260.9,150.3,255.4,151,249.2z"/>
</g>
</svg>
