<!--?xml version="1.0" encoding="utf-8"?-->
<!-- Generator: Adobe Illustrator 17.0.0, SVG Export Plug-In . SVG Version: 6.00 Build 0)  -->

<svg version="1.1" id="Layer_2" xmlns="http://www.w3.org/2000/svg" xmlns:xlink="http://www.w3.org/1999/xlink" x="0px" y="0px" width="500px" height="500px" viewBox="0 0 500 500" enable-background="new 0 0 500 500" xml:space="preserve" style="">
<g>
	<path fill="none" stroke="#000000" stroke-width="6" stroke-linecap="round" stroke-linejoin="round" stroke-miterlimit="10" d="
		M109.563,250.876l3.215-95.991l5.311-67.471c0,0,4.452-11.402,10.304-16.63c0,0,6.695-18.698,23.636-14.18
		s23.812,11.365,23.812,11.365l36.399,12.587l10.627-11.133l0.875-9.678l22.777-17.43l69.591,25.288l-0.204,17.262
		c0,0,19.19,29.824,24.211,33.752s37.091,19.585,37.091,19.585s26.847,2.31,37.881,22.25c10.27,8.081,12.866,11.78,15.03,19.275
		c2.164,7.495,3.793,17.249,3.793,17.249s7.158,4.142,7.677,9.524c0.519,5.382-4.035,13.65-4.035,13.65l-5.236,131.144
		c0,0,6.356,7.56,6.73,10.379s-5.658,18.343-21.697,19.857c-11.759,2.151-35.195-5.551-55.69-13.791s-38.052-17.018-38.052-17.018
		l-47.756,43.234l-27.768,25.139l-39.134,35.429l-50.774-28.157L96.12,391.951l-36.525-20.255l-0.403-16.241l20.019-10.269
		l0.486-21.772l0.523-23.433l3.776-4.131C83.996,295.85,83.567,268.011,109.563,250.876z" class="ZFlkERTs_0"></path>
	<path fill="none" stroke="#000000" stroke-width="5" stroke-linecap="round" stroke-linejoin="round" stroke-miterlimit="10" d="
		M118.089,87.414c0,0-5.391,13.538,17.696,32.701c20.989,13.751,47.294,24.252,77.015,38.589
		c27.891,11.405,57.726,23.649,84.808,34.78c51.057,20.986,92.328,38.017,92.328,38.017s19.732,6.893,30.857,0
		s16.76-11.351,16.76-11.351" class="ZFlkERTs_1"></path>
	<path fill="none" stroke="#000000" stroke-width="5" stroke-linecap="round" stroke-linejoin="round" stroke-miterlimit="10" d="
		M137.039,72.707c0,0-11.879,10.912-0.397,27.122s38.608,25.988,63.72,39.581c12.78,6.918,58.926,25.794,103.046,43.149
		c42.575,16.747,83.262,32.075,90.259,33.872c14.247,3.659,32.99,2.354,40.245-19.455" class="ZFlkERTs_2"></path>
	<path fill="none" stroke="#000000" stroke-width="4" stroke-linecap="round" stroke-linejoin="round" stroke-miterlimit="10" d="
		M133.167,89.833c0,0,20.14-6.15,40,0c19.86,6.15,27.604,6.017,27.604,6.017s16.379-22.601,25.009-20.853
		s64.799,22.137,65.686,25.474c0.887,3.337,22.008,40.917,33.635,46.471s69.664,28.83,78.077,34.544
		c8.413,5.714,19.322,32.347,19.322,32.347" class="ZFlkERTs_3"></path>
	<path fill="none" stroke="#000000" stroke-width="5" stroke-linecap="round" stroke-linejoin="round" stroke-miterlimit="10" d="
		M133.833,63.833c0,0-3.924,7.859,9.649,14.162c13.573,6.302,32.015,3.107,32.183-7.194" class="ZFlkERTs_4"></path>
	<path fill="none" stroke="#000000" stroke-width="3" stroke-linecap="round" stroke-linejoin="round" stroke-miterlimit="10" d="
		M142.091,65.385c0,0,10.964-4.527,18.353,1.294s-3.217,10.297-9.177,8.222C145.308,72.825,140.592,71.893,142.091,65.385z" class="ZFlkERTs_5"></path>
	<path fill="none" stroke="#000000" stroke-width="5" stroke-linecap="round" stroke-linejoin="round" stroke-miterlimit="10" d="
		M378.5,139.833c0,0-17.82,3.485-7.038,16.52c10.782,13.035,27.602,15.366,33.638,12.386c6.036-2.98,4.04-13.85,4.04-13.85
		S394.5,140.5,378.5,139.833z" class="ZFlkERTs_6"></path>
	<path fill="none" stroke="#000000" stroke-width="3" stroke-linecap="round" stroke-linejoin="round" stroke-miterlimit="10" d="
		M383.6,148.354c0,0-9.41,0.882,0,10.901c12.866,4.992,17.88,3.971,15.141-3.207C396.002,148.87,383.6,148.354,383.6,148.354z" class="ZFlkERTs_7"></path>
	
		<path fill="none" stroke="#000000" stroke-width="3" stroke-linecap="round" stroke-linejoin="round" stroke-miterlimit="10" d="M289.167,98.5L289.586,83.636L316.11,67.603" class="ZFlkERTs_8"></path>
	
		<path fill="none" stroke="#000000" stroke-width="3" stroke-linecap="round" stroke-linejoin="round" stroke-miterlimit="10" d="M291.466,100.471L315.906,84.865" class="ZFlkERTs_9"></path>
	
		<path fill="none" stroke="#000000" stroke-width="3" stroke-linecap="round" stroke-linejoin="round" stroke-miterlimit="10" d="M225.78,74.997L244.01,60.479L245.861,44.903" class="ZFlkERTs_10"></path>
	
		<path fill="none" stroke="#000000" stroke-width="3" stroke-linecap="round" stroke-linejoin="round" stroke-miterlimit="10" d="M244.01,60.479L268.24,68.757L297.605,78.789" class="ZFlkERTs_11"></path>
	
		<path fill="none" stroke="#000000" stroke-width="5" stroke-linecap="round" stroke-linejoin="round" stroke-miterlimit="10" d="M245.178,50.648L276.094,62.126L305.833,73.167" class="ZFlkERTs_12"></path>
	
		<path fill="none" stroke="#000000" stroke-width="3" stroke-linecap="round" stroke-linejoin="round" stroke-miterlimit="10" d="M197.703,95.62L177.305,87.626L190.871,73.167" class="ZFlkERTs_13"></path>
	<path fill="none" stroke="#000000" stroke-width="3" stroke-linecap="round" stroke-linejoin="round" stroke-miterlimit="10" d="
		M404.116,179.972c0,0,10.384-6.805,17.051-12.805" class="ZFlkERTs_14"></path>
	
		<path fill="none" stroke="#000000" stroke-width="3" stroke-linecap="round" stroke-linejoin="round" stroke-miterlimit="10" d="M259.167,161.517L261.621,123.07L235.071,114.657L232.458,119.003L230.634,151.331" class="ZFlkERTs_15"></path>
	
		<path fill="none" stroke="#000000" stroke-width="5" stroke-linecap="round" stroke-linejoin="round" stroke-miterlimit="10" d="M235.901,153.617L236.555,123.789L238.554,121.632L254.011,126.222L253.201,158.704" class="ZFlkERTs_16"></path>
	<path fill="none" stroke="#000000" stroke-width="3" stroke-linecap="round" stroke-linejoin="round" stroke-miterlimit="10" d="
		M432.318,351.294c0,0-5.214,13.798-16.133,14.171c-7.967,4.226-35.49-7.089-60.282-19.042c-23.29-11.229-44.172-23.02-44.172-23.02
		" class="ZFlkERTs_17"></path>
	
		<path fill="none" stroke="#000000" stroke-width="5" stroke-linecap="round" stroke-linejoin="round" stroke-miterlimit="10" d="M323.609,350.721L311.283,345.3L311.418,301.546L311.544,260.504L311.731,199.674" class="ZFlkERTs_18"></path>
	<path fill="none" stroke="#000000" stroke-width="6" stroke-linecap="round" stroke-linejoin="round" stroke-miterlimit="10" d="
		M171.167,141.167l-50.592,107.321c0,0-13.381,1.429-14.882,5.167c-1.501,3.738-49.69,42.897,4.318,106.033
		c23.155,25.478,51.618,33.478,64.261,30.293c14.074-2.502,23.065-16.628,26.318-29.57s1.676-43.715-5.076-57.44
		c-6.752-13.725-35.112-49.307-74.939-54.483" class="ZFlkERTs_19"></path>
	<path fill="none" stroke="#000000" stroke-width="5" stroke-linecap="round" stroke-linejoin="round" stroke-miterlimit="10" d="
		M126.971,247.481l16.374-3.951c0,0,12.18,0.466,22.661,6.47c19.116,10.95,42.759,32.422,48.549,47.21
		c8.965,22.896,6.528,64.384,0,73.289s-31.434,16.088-31.434,16.088" class="ZFlkERTs_20"></path>
	
		<path fill="none" stroke="#000000" stroke-width="3" stroke-linecap="round" stroke-linejoin="round" stroke-miterlimit="10" d="M197.703,307.423L211.526,295.67" class="ZFlkERTs_21"></path>
	<path fill="none" stroke="#000000" stroke-width="3" stroke-linecap="round" stroke-linejoin="round" stroke-miterlimit="10" d="
		M109.216,276.579c-11.386,17.503-12.895,39.622,3.321,64.372c28.629,39.752,55.485,31.606,65.724,20.911
		c10.239-10.695,12.403-31.933,0-55.452C160.703,281.056,130.025,256.68,109.216,276.579z" class="ZFlkERTs_22"></path>
	<path fill="none" stroke="#000000" stroke-width="3" stroke-linecap="round" stroke-linejoin="round" stroke-miterlimit="10" d="
		M119.489,295.846c-6.329,9.729-7.167,22.023,1.846,35.781c15.913,22.096,30.841,17.568,36.532,11.623
		c5.691-5.945,6.894-17.75,0-30.822C148.108,298.334,131.056,284.785,119.489,295.846z" class="ZFlkERTs_23"></path>
	<path fill="none" stroke="#000000" stroke-width="3" stroke-linecap="round" stroke-linejoin="round" stroke-miterlimit="10" d="
		M127.64,296.85c-4.779,7.347-5.413,16.632,1.394,27.021c12.017,16.686,23.29,13.267,27.588,8.778
		c4.298-4.489,5.206-13.404,0-23.276C149.252,298.73,136.375,288.498,127.64,296.85z" class="ZFlkERTs_24"></path>
	<path fill="none" stroke="#000000" stroke-width="3" stroke-linecap="round" stroke-linejoin="round" stroke-miterlimit="10" d="
		M138.601,301.097c-2.579,3.965-2.921,8.975,0.752,14.581c6.485,9.005,12.568,7.159,14.888,4.737c2.319-2.423,2.809-7.233,0-12.561
		C150.264,302.111,143.315,296.589,138.601,301.097z" class="ZFlkERTs_25"></path>
	<path fill="none" stroke="#000000" stroke-width="5" stroke-linecap="round" stroke-linejoin="round" stroke-miterlimit="10" d="
		M311.695,211.501l-32.12,58.769c0,0-8.978,2.226-14.312,12.207c-0.489,13.04-1.82,24.946-1.82,24.946L225.78,414.065
		c0,0-5.134,22.872,7.907,16.088c13.041-6.784,6.736-18.877,6.736-18.877s27.006-92.514,35.458-100.353
		c8.452-7.84,9.47-11.91,12.509-18.349s2.368-21.685,2.368-21.685l20.524-38.139" class="ZFlkERTs_26"></path>
	<path fill="none" stroke="#000000" stroke-width="3" stroke-linecap="round" stroke-linejoin="round" stroke-miterlimit="10" d="
		M279.575,270.27c0,0,5.371-2.745,11.231,6.081" class="ZFlkERTs_27"></path>
	<path fill="none" stroke="#000000" stroke-width="3" stroke-linecap="round" stroke-linejoin="round" stroke-miterlimit="10" d="
		M276.349,284.094c0,0-5.29,0.845-4.909,6.167c2.411,5.027,6.108,4.32,9.041,1.525C281.999,290.079,280.601,284.094,276.349,284.094
		z" class="ZFlkERTs_28"></path>
	<path fill="none" stroke="#000000" stroke-width="3" stroke-linecap="round" stroke-linejoin="round" stroke-miterlimit="10" d="
		M231.948,417.247c0,0-4.257,0.68-3.95,4.962c1.94,4.045,4.915,3.476,7.275,1.227C236.494,422.063,235.369,417.247,231.948,417.247z
		" class="ZFlkERTs_29"></path>
	
		<path fill="none" stroke="#000000" stroke-width="3" stroke-linecap="round" stroke-linejoin="round" stroke-miterlimit="10" d="M311.283,208L254.014,183.547L208.037,163.916L184.887,154.031" class="ZFlkERTs_30"></path>
	
		<path fill="none" stroke="#000000" stroke-width="5" stroke-linecap="round" stroke-linejoin="round" stroke-miterlimit="10" d="M288.289,250.002L287.09,231.438L286.199,217.649L240.421,198.381L220.4,189.954L175.075,173.567L174.472,186.467L174.11,194.196" class="ZFlkERTs_31"></path>
	
		<path fill="none" stroke="#000000" stroke-width="3" stroke-linecap="round" stroke-linejoin="round" stroke-miterlimit="10" d="M273.12,271.343L272.632,254.497L272.129,237.115L244.951,225.629L211.525,211.502L161.418,190.326L160.648,208L160.285,216.344" class="ZFlkERTs_32"></path>
	
		<path fill="none" stroke="#000000" stroke-width="5" stroke-linecap="round" stroke-linejoin="round" stroke-miterlimit="10" d="M249.646,339.125L249.209,306.444L248.57,258.686L202.222,237.989L169.703,223.467L147.739,213.659L146.188,230.921" class="ZFlkERTs_33"></path>
	
		<path fill="none" stroke="#000000" stroke-width="3" stroke-linecap="round" stroke-linejoin="round" stroke-miterlimit="10" d="M225.78,414.065L225.729,378.289L225.656,327.169L225.573,268.433L197.703,256.312L171.538,244.933L137.348,230.063L
		137.896,243.234" class="ZFlkERTs_34"></path>
	
		<path fill="none" stroke="#000000" stroke-width="3" stroke-linecap="round" stroke-linejoin="round" stroke-miterlimit="10" d="M298.98,231.36L289.11,227.467" class="ZFlkERTs_35"></path>
	
		<path fill="none" stroke="#000000" stroke-width="3" stroke-linecap="round" stroke-linejoin="round" stroke-miterlimit="10" d="M185.265,148.028L131.085,244.935" class="ZFlkERTs_36"></path>
	
		<path fill="none" stroke="#000000" stroke-width="3" stroke-linecap="round" stroke-linejoin="round" stroke-miterlimit="10" d="M288.289,250.002L273.12,243.53" class="ZFlkERTs_37"></path>
	
		<path fill="none" stroke="#000000" stroke-width="5" stroke-linecap="round" stroke-linejoin="round" stroke-miterlimit="10" d="M294.045,267.504L295.014,310.901L295.784,345.351L278.275,341.126" class="ZFlkERTs_38"></path>
	
		<path fill="none" stroke="#000000" stroke-width="3" stroke-linecap="round" stroke-linejoin="round" stroke-miterlimit="10" d="M275.882,310.923L275.938,337.979L275.994,365.034L259.143,358.556" class="ZFlkERTs_39"></path>
	
		<path fill="none" stroke="#000000" stroke-width="3" stroke-linecap="round" stroke-linejoin="round" stroke-miterlimit="10" d="M273.12,271.343L248.594,260.505" class="ZFlkERTs_40"></path>
	
		<path fill="none" stroke="#000000" stroke-width="3" stroke-linecap="round" stroke-linejoin="round" stroke-miterlimit="10" d="M247.695,282.417L226.737,273.109" class="ZFlkERTs_41"></path>
	
		<path fill="none" stroke="#000000" stroke-width="3" stroke-linecap="round" stroke-linejoin="round" stroke-miterlimit="10" d="M224.201,293.457L208.043,284.207" class="ZFlkERTs_42"></path>
	
		<path fill="none" stroke="#000000" stroke-width="3" stroke-linecap="round" stroke-linejoin="round" stroke-miterlimit="10" d="M310.139,332.247L247.695,391.951" class="ZFlkERTs_43"></path>
	
		<path fill="none" stroke="#000000" stroke-width="3" stroke-linecap="round" stroke-linejoin="round" stroke-miterlimit="10" d="M311.283,345.3L240.423,411.276" class="ZFlkERTs_44"></path>
	
		<path fill="none" stroke="#000000" stroke-width="5" stroke-linecap="round" stroke-linejoin="round" stroke-miterlimit="10" d="M224.233,427.261L205.15,439.945L58.383,356.5" class="ZFlkERTs_45"></path>
	
		<path fill="none" stroke="#000000" stroke-width="3" stroke-linecap="round" stroke-linejoin="round" stroke-miterlimit="10" d="M224.388,414.423L203.008,429.174L79.562,359.034L99.504,347.572" class="ZFlkERTs_46"></path>
	
		<path fill="none" stroke="#000000" stroke-width="3" stroke-linecap="round" stroke-linejoin="round" stroke-miterlimit="10" d="M80.225,356.5L79.211,345.186" class="ZFlkERTs_47"></path>
	
		<path fill="none" stroke="#000000" stroke-width="5" stroke-linecap="round" stroke-linejoin="round" stroke-miterlimit="10" d="M203.008,429.174L202.22,407.05L201.308,381.43L224.301,367.284" class="ZFlkERTs_48"></path>
	
		<path fill="none" stroke="#000000" stroke-width="3" stroke-linecap="round" stroke-linejoin="round" stroke-miterlimit="10" d="M208.043,452.952L205.15,439.945" class="ZFlkERTs_49"></path>
</g>
<style data-made-with="vivus-instant">.ZFlkERTs_0{stroke-dasharray:1367 1369;stroke-dashoffset:1368;animation:ZFlkERTs_draw_0 5200ms linear 0ms infinite,ZFlkERTs_fade 5200ms linear 0ms infinite;}.ZFlkERTs_1{stroke-dasharray:369 371;stroke-dashoffset:370;animation:ZFlkERTs_draw_1 5200ms linear 0ms infinite,ZFlkERTs_fade 5200ms linear 0ms infinite;}.ZFlkERTs_2{stroke-dasharray:364 366;stroke-dashoffset:365;animation:ZFlkERTs_draw_2 5200ms linear 0ms infinite,ZFlkERTs_fade 5200ms linear 0ms infinite;}.ZFlkERTs_3{stroke-dasharray:355 357;stroke-dashoffset:356;animation:ZFlkERTs_draw_3 5200ms linear 0ms infinite,ZFlkERTs_fade 5200ms linear 0ms infinite;}.ZFlkERTs_4{stroke-dasharray:57 59;stroke-dashoffset:58;animation:ZFlkERTs_draw_4 5200ms linear 0ms infinite,ZFlkERTs_fade 5200ms linear 0ms infinite;}.ZFlkERTs_5{stroke-dasharray:54 56;stroke-dashoffset:55;animation:ZFlkERTs_draw_5 5200ms linear 0ms infinite,ZFlkERTs_fade 5200ms linear 0ms infinite;}.ZFlkERTs_6{stroke-dasharray:112 114;stroke-dashoffset:113;animation:ZFlkERTs_draw_6 5200ms linear 0ms infinite,ZFlkERTs_fade 5200ms linear 0ms infinite;}.ZFlkERTs_7{stroke-dasharray:54 56;stroke-dashoffset:55;animation:ZFlkERTs_draw_7 5200ms linear 0ms infinite,ZFlkERTs_fade 5200ms linear 0ms infinite;}.ZFlkERTs_8{stroke-dasharray:46 48;stroke-dashoffset:47;animation:ZFlkERTs_draw_8 5200ms linear 0ms infinite,ZFlkERTs_fade 5200ms linear 0ms infinite;}.ZFlkERTs_9{stroke-dasharray:29 31;stroke-dashoffset:30;animation:ZFlkERTs_draw_9 5200ms linear 0ms infinite,ZFlkERTs_fade 5200ms linear 0ms infinite;}.ZFlkERTs_10{stroke-dasharray:39 41;stroke-dashoffset:40;animation:ZFlkERTs_draw_10 5200ms linear 0ms infinite,ZFlkERTs_fade 5200ms linear 0ms infinite;}.ZFlkERTs_11{stroke-dasharray:57 59;stroke-dashoffset:58;animation:ZFlkERTs_draw_11 5200ms linear 0ms infinite,ZFlkERTs_fade 5200ms linear 0ms infinite;}.ZFlkERTs_12{stroke-dasharray:65 67;stroke-dashoffset:66;animation:ZFlkERTs_draw_12 5200ms linear 0ms infinite,ZFlkERTs_fade 5200ms linear 0ms infinite;}.ZFlkERTs_13{stroke-dasharray:42 44;stroke-dashoffset:43;animation:ZFlkERTs_draw_13 5200ms linear 0ms infinite,ZFlkERTs_fade 5200ms linear 0ms infinite;}.ZFlkERTs_14{stroke-dasharray:22 24;stroke-dashoffset:23;animation:ZFlkERTs_draw_14 5200ms linear 0ms infinite,ZFlkERTs_fade 5200ms linear 0ms infinite;}.ZFlkERTs_15{stroke-dasharray:104 106;stroke-dashoffset:105;animation:ZFlkERTs_draw_15 5200ms linear 0ms infinite,ZFlkERTs_fade 5200ms linear 0ms infinite;}.ZFlkERTs_16{stroke-dasharray:82 84;stroke-dashoffset:83;animation:ZFlkERTs_draw_16 5200ms linear 0ms infinite,ZFlkERTs_fade 5200ms linear 0ms infinite;}.ZFlkERTs_17{stroke-dasharray:137 139;stroke-dashoffset:138;animation:ZFlkERTs_draw_17 5200ms linear 0ms infinite,ZFlkERTs_fade 5200ms linear 0ms infinite;}.ZFlkERTs_18{stroke-dasharray:160 162;stroke-dashoffset:161;animation:ZFlkERTs_draw_18 5200ms linear 0ms infinite,ZFlkERTs_fade 5200ms linear 0ms infinite;}.ZFlkERTs_19{stroke-dasharray:524 526;stroke-dashoffset:525;animation:ZFlkERTs_draw_19 5200ms linear 0ms infinite,ZFlkERTs_fade 5200ms linear 0ms infinite;}.ZFlkERTs_20{stroke-dasharray:220 222;stroke-dashoffset:221;animation:ZFlkERTs_draw_20 5200ms linear 0ms infinite,ZFlkERTs_fade 5200ms linear 0ms infinite;}.ZFlkERTs_21{stroke-dasharray:19 21;stroke-dashoffset:20;animation:ZFlkERTs_draw_21 5200ms linear 0ms infinite,ZFlkERTs_fade 5200ms linear 0ms infinite;}.ZFlkERTs_22{stroke-dasharray:292 294;stroke-dashoffset:293;animation:ZFlkERTs_draw_22 5200ms linear 0ms infinite,ZFlkERTs_fade 5200ms linear 0ms infinite;}.ZFlkERTs_23{stroke-dasharray:163 165;stroke-dashoffset:164;animation:ZFlkERTs_draw_23 5200ms linear 0ms infinite,ZFlkERTs_fade 5200ms linear 0ms infinite;}.ZFlkERTs_24{stroke-dasharray:123 125;stroke-dashoffset:124;animation:ZFlkERTs_draw_24 5200ms linear 0ms infinite,ZFlkERTs_fade 5200ms linear 0ms infinite;}.ZFlkERTs_25{stroke-dasharray:67 69;stroke-dashoffset:68;animation:ZFlkERTs_draw_25 5200ms linear 0ms infinite,ZFlkERTs_fade 5200ms linear 0ms infinite;}.ZFlkERTs_26{stroke-dasharray:466 468;stroke-dashoffset:467;animation:ZFlkERTs_draw_26 5200ms linear 0ms infinite,ZFlkERTs_fade 5200ms linear 0ms infinite;}.ZFlkERTs_27{stroke-dasharray:14 16;stroke-dashoffset:15;animation:ZFlkERTs_draw_27 5200ms linear 0ms infinite,ZFlkERTs_fade 5200ms linear 0ms infinite;}.ZFlkERTs_28{stroke-dasharray:31 33;stroke-dashoffset:32;animation:ZFlkERTs_draw_28 5200ms linear 0ms infinite,ZFlkERTs_fade 5200ms linear 0ms infinite;}.ZFlkERTs_29{stroke-dasharray:25 27;stroke-dashoffset:26;animation:ZFlkERTs_draw_29 5200ms linear 0ms infinite,ZFlkERTs_fade 5200ms linear 0ms infinite;}.ZFlkERTs_30{stroke-dasharray:138 140;stroke-dashoffset:139;animation:ZFlkERTs_draw_30 5200ms linear 0ms infinite,ZFlkERTs_fade 5200ms linear 0ms infinite;}.ZFlkERTs_31{stroke-dasharray:173 175;stroke-dashoffset:174;animation:ZFlkERTs_draw_31 5200ms linear 0ms infinite,ZFlkERTs_fade 5200ms linear 0ms infinite;}.ZFlkERTs_32{stroke-dasharray:181 183;stroke-dashoffset:182;animation:ZFlkERTs_draw_32 5200ms linear 0ms infinite,ZFlkERTs_fade 5200ms linear 0ms infinite;}.ZFlkERTs_33{stroke-dasharray:209 211;stroke-dashoffset:210;animation:ZFlkERTs_draw_33 5200ms linear 0ms infinite,ZFlkERTs_fade 5200ms linear 0ms infinite;}.ZFlkERTs_34{stroke-dasharray:256 258;stroke-dashoffset:257;animation:ZFlkERTs_draw_34 5200ms linear 0ms infinite,ZFlkERTs_fade 5200ms linear 0ms infinite;}.ZFlkERTs_35{stroke-dasharray:11 13;stroke-dashoffset:12;animation:ZFlkERTs_draw_35 5200ms linear 0ms infinite,ZFlkERTs_fade 5200ms linear 0ms infinite;}.ZFlkERTs_36{stroke-dasharray:112 114;stroke-dashoffset:113;animation:ZFlkERTs_draw_36 5200ms linear 0ms infinite,ZFlkERTs_fade 5200ms linear 0ms infinite;}.ZFlkERTs_37{stroke-dasharray:17 19;stroke-dashoffset:18;animation:ZFlkERTs_draw_37 5200ms linear 0ms infinite,ZFlkERTs_fade 5200ms linear 0ms infinite;}.ZFlkERTs_38{stroke-dasharray:96 98;stroke-dashoffset:97;animation:ZFlkERTs_draw_38 5200ms linear 0ms infinite,ZFlkERTs_fade 5200ms linear 0ms infinite;}.ZFlkERTs_39{stroke-dasharray:73 75;stroke-dashoffset:74;animation:ZFlkERTs_draw_39 5200ms linear 0ms infinite,ZFlkERTs_fade 5200ms linear 0ms infinite;}.ZFlkERTs_40{stroke-dasharray:27 29;stroke-dashoffset:28;animation:ZFlkERTs_draw_40 5200ms linear 0ms infinite,ZFlkERTs_fade 5200ms linear 0ms infinite;}.ZFlkERTs_41{stroke-dasharray:23 25;stroke-dashoffset:24;animation:ZFlkERTs_draw_41 5200ms linear 0ms infinite,ZFlkERTs_fade 5200ms linear 0ms infinite;}.ZFlkERTs_42{stroke-dasharray:19 21;stroke-dashoffset:20;animation:ZFlkERTs_draw_42 5200ms linear 0ms infinite,ZFlkERTs_fade 5200ms linear 0ms infinite;}.ZFlkERTs_43{stroke-dasharray:87 89;stroke-dashoffset:88;animation:ZFlkERTs_draw_43 5200ms linear 0ms infinite,ZFlkERTs_fade 5200ms linear 0ms infinite;}.ZFlkERTs_44{stroke-dasharray:97 99;stroke-dashoffset:98;animation:ZFlkERTs_draw_44 5200ms linear 0ms infinite,ZFlkERTs_fade 5200ms linear 0ms infinite;}.ZFlkERTs_45{stroke-dasharray:192 194;stroke-dashoffset:193;animation:ZFlkERTs_draw_45 5200ms linear 0ms infinite,ZFlkERTs_fade 5200ms linear 0ms infinite;}.ZFlkERTs_46{stroke-dasharray:191 193;stroke-dashoffset:192;animation:ZFlkERTs_draw_46 5200ms linear 0ms infinite,ZFlkERTs_fade 5200ms linear 0ms infinite;}.ZFlkERTs_47{stroke-dasharray:12 14;stroke-dashoffset:13;animation:ZFlkERTs_draw_47 5200ms linear 0ms infinite,ZFlkERTs_fade 5200ms linear 0ms infinite;}.ZFlkERTs_48{stroke-dasharray:75 77;stroke-dashoffset:76;animation:ZFlkERTs_draw_48 5200ms linear 0ms infinite,ZFlkERTs_fade 5200ms linear 0ms infinite;}.ZFlkERTs_49{stroke-dasharray:14 16;stroke-dashoffset:15;animation:ZFlkERTs_draw_49 5200ms linear 0ms infinite,ZFlkERTs_fade 5200ms linear 0ms infinite;}@keyframes ZFlkERTs_draw{100%{stroke-dashoffset:0;}}@keyframes ZFlkERTs_fade{0%{stroke-opacity:1;}92.3076923076923%{stroke-opacity:1;}100%{stroke-opacity:0;}}@keyframes ZFlkERTs_draw_0{15.384615384615385%{stroke-dashoffset: 1368}53.84615384615385%{ stroke-dashoffset: 0;}100%{ stroke-dashoffset: 0;}}@keyframes ZFlkERTs_draw_1{15.777080062794349%{stroke-dashoffset: 370}54.23861852433281%{ stroke-dashoffset: 0;}100%{ stroke-dashoffset: 0;}}@keyframes ZFlkERTs_draw_2{16.16954474097331%{stroke-dashoffset: 365}54.63108320251177%{ stroke-dashoffset: 0;}100%{ stroke-dashoffset: 0;}}@keyframes ZFlkERTs_draw_3{16.562009419152275%{stroke-dashoffset: 356}55.023547880690735%{ stroke-dashoffset: 0;}100%{ stroke-dashoffset: 0;}}@keyframes ZFlkERTs_draw_4{16.95447409733124%{stroke-dashoffset: 58}55.416012558869696%{ stroke-dashoffset: 0;}100%{ stroke-dashoffset: 0;}}@keyframes ZFlkERTs_draw_5{17.346938775510203%{stroke-dashoffset: 55}55.80847723704867%{ stroke-dashoffset: 0;}100%{ stroke-dashoffset: 0;}}@keyframes ZFlkERTs_draw_6{17.739403453689167%{stroke-dashoffset: 113}56.20094191522763%{ stroke-dashoffset: 0;}100%{ stroke-dashoffset: 0;}}@keyframes ZFlkERTs_draw_7{18.13186813186813%{stroke-dashoffset: 55}56.593406593406606%{ stroke-dashoffset: 0;}100%{ stroke-dashoffset: 0;}}@keyframes ZFlkERTs_draw_8{18.524332810047095%{stroke-dashoffset: 47}56.985871271585566%{ stroke-dashoffset: 0;}100%{ stroke-dashoffset: 0;}}@keyframes ZFlkERTs_draw_9{18.91679748822606%{stroke-dashoffset: 30}57.378335949764526%{ stroke-dashoffset: 0;}100%{ stroke-dashoffset: 0;}}@keyframes ZFlkERTs_draw_10{19.309262166405023%{stroke-dashoffset: 40}57.77080062794349%{ stroke-dashoffset: 0;}100%{ stroke-dashoffset: 0;}}@keyframes ZFlkERTs_draw_11{19.701726844583987%{stroke-dashoffset: 58}58.16326530612245%{ stroke-dashoffset: 0;}100%{ stroke-dashoffset: 0;}}@keyframes ZFlkERTs_draw_12{20.09419152276295%{stroke-dashoffset: 66}58.55572998430141%{ stroke-dashoffset: 0;}100%{ stroke-dashoffset: 0;}}@keyframes ZFlkERTs_draw_13{20.486656200941912%{stroke-dashoffset: 43}58.94819466248037%{ stroke-dashoffset: 0;}100%{ stroke-dashoffset: 0;}}@keyframes ZFlkERTs_draw_14{20.87912087912088%{stroke-dashoffset: 23}59.34065934065934%{ stroke-dashoffset: 0;}100%{ stroke-dashoffset: 0;}}@keyframes ZFlkERTs_draw_15{21.271585557299844%{stroke-dashoffset: 105}59.7331240188383%{ stroke-dashoffset: 0;}100%{ stroke-dashoffset: 0;}}@keyframes ZFlkERTs_draw_16{21.664050235478804%{stroke-dashoffset: 83}60.125588697017264%{ stroke-dashoffset: 0;}100%{ stroke-dashoffset: 0;}}@keyframes ZFlkERTs_draw_17{22.05651491365777%{stroke-dashoffset: 138}60.51805337519623%{ stroke-dashoffset: 0;}100%{ stroke-dashoffset: 0;}}@keyframes ZFlkERTs_draw_18{22.448979591836732%{stroke-dashoffset: 161}60.9105180533752%{ stroke-dashoffset: 0;}100%{ stroke-dashoffset: 0;}}@keyframes ZFlkERTs_draw_19{22.8414442700157%{stroke-dashoffset: 525}61.30298273155416%{ stroke-dashoffset: 0;}100%{ stroke-dashoffset: 0;}}@keyframes ZFlkERTs_draw_20{23.233908948194664%{stroke-dashoffset: 221}61.69544740973313%{ stroke-dashoffset: 0;}100%{ stroke-dashoffset: 0;}}@keyframes ZFlkERTs_draw_21{23.626373626373624%{stroke-dashoffset: 20}62.08791208791209%{ stroke-dashoffset: 0;}100%{ stroke-dashoffset: 0;}}@keyframes ZFlkERTs_draw_22{24.018838304552588%{stroke-dashoffset: 293}62.48037676609105%{ stroke-dashoffset: 0;}100%{ stroke-dashoffset: 0;}}@keyframes ZFlkERTs_draw_23{24.411302982731552%{stroke-dashoffset: 164}62.87284144427001%{ stroke-dashoffset: 0;}100%{ stroke-dashoffset: 0;}}@keyframes ZFlkERTs_draw_24{24.80376766091052%{stroke-dashoffset: 124}63.26530612244898%{ stroke-dashoffset: 0;}100%{ stroke-dashoffset: 0;}}@keyframes ZFlkERTs_draw_25{25.19623233908948%{stroke-dashoffset: 68}63.657770800627944%{ stroke-dashoffset: 0;}100%{ stroke-dashoffset: 0;}}@keyframes ZFlkERTs_draw_26{25.58869701726844%{stroke-dashoffset: 467}64.05023547880691%{ stroke-dashoffset: 0;}100%{ stroke-dashoffset: 0;}}@keyframes ZFlkERTs_draw_27{25.98116169544741%{stroke-dashoffset: 15}64.44270015698588%{ stroke-dashoffset: 0;}100%{ stroke-dashoffset: 0;}}@keyframes ZFlkERTs_draw_28{26.373626373626376%{stroke-dashoffset: 32}64.83516483516483%{ stroke-dashoffset: 0;}100%{ stroke-dashoffset: 0;}}@keyframes ZFlkERTs_draw_29{26.76609105180534%{stroke-dashoffset: 26}65.2276295133438%{ stroke-dashoffset: 0;}100%{ stroke-dashoffset: 0;}}@keyframes ZFlkERTs_draw_30{27.1585557299843%{stroke-dashoffset: 139}65.62009419152275%{ stroke-dashoffset: 0;}100%{ stroke-dashoffset: 0;}}@keyframes ZFlkERTs_draw_31{27.55102040816326%{stroke-dashoffset: 174}66.01255886970172%{ stroke-dashoffset: 0;}100%{ stroke-dashoffset: 0;}}@keyframes ZFlkERTs_draw_32{27.94348508634223%{stroke-dashoffset: 182}66.40502354788069%{ stroke-dashoffset: 0;}100%{ stroke-dashoffset: 0;}}@keyframes ZFlkERTs_draw_33{28.335949764521196%{stroke-dashoffset: 210}66.79748822605966%{ stroke-dashoffset: 0;}100%{ stroke-dashoffset: 0;}}@keyframes ZFlkERTs_draw_34{28.728414442700156%{stroke-dashoffset: 257}67.18995290423861%{ stroke-dashoffset: 0;}100%{ stroke-dashoffset: 0;}}@keyframes ZFlkERTs_draw_35{29.120879120879117%{stroke-dashoffset: 12}67.58241758241759%{ stroke-dashoffset: 0;}100%{ stroke-dashoffset: 0;}}@keyframes ZFlkERTs_draw_36{29.513343799058084%{stroke-dashoffset: 113}67.97488226059654%{ stroke-dashoffset: 0;}100%{ stroke-dashoffset: 0;}}@keyframes ZFlkERTs_draw_37{29.905808477237052%{stroke-dashoffset: 18}68.36734693877553%{ stroke-dashoffset: 0;}100%{ stroke-dashoffset: 0;}}@keyframes ZFlkERTs_draw_38{30.298273155416016%{stroke-dashoffset: 97}68.75981161695448%{ stroke-dashoffset: 0;}100%{ stroke-dashoffset: 0;}}@keyframes ZFlkERTs_draw_39{30.690737833594977%{stroke-dashoffset: 74}69.15227629513345%{ stroke-dashoffset: 0;}100%{ stroke-dashoffset: 0;}}@keyframes ZFlkERTs_draw_40{31.083202511773937%{stroke-dashoffset: 28}69.5447409733124%{ stroke-dashoffset: 0;}100%{ stroke-dashoffset: 0;}}@keyframes ZFlkERTs_draw_41{31.4756671899529%{stroke-dashoffset: 24}69.93720565149137%{ stroke-dashoffset: 0;}100%{ stroke-dashoffset: 0;}}@keyframes ZFlkERTs_draw_42{31.868131868131865%{stroke-dashoffset: 20}70.32967032967032%{ stroke-dashoffset: 0;}100%{ stroke-dashoffset: 0;}}@keyframes ZFlkERTs_draw_43{32.26059654631083%{stroke-dashoffset: 88}70.72213500784929%{ stroke-dashoffset: 0;}100%{ stroke-dashoffset: 0;}}@keyframes ZFlkERTs_draw_44{32.6530612244898%{stroke-dashoffset: 98}71.11459968602826%{ stroke-dashoffset: 0;}100%{ stroke-dashoffset: 0;}}@keyframes ZFlkERTs_draw_45{33.04552590266876%{stroke-dashoffset: 193}71.50706436420722%{ stroke-dashoffset: 0;}100%{ stroke-dashoffset: 0;}}@keyframes ZFlkERTs_draw_46{33.43799058084772%{stroke-dashoffset: 192}71.89952904238618%{ stroke-dashoffset: 0;}100%{ stroke-dashoffset: 0;}}@keyframes ZFlkERTs_draw_47{33.830455259026685%{stroke-dashoffset: 13}72.29199372056515%{ stroke-dashoffset: 0;}100%{ stroke-dashoffset: 0;}}@keyframes ZFlkERTs_draw_48{34.22291993720565%{stroke-dashoffset: 76}72.68445839874411%{ stroke-dashoffset: 0;}100%{ stroke-dashoffset: 0;}}@keyframes ZFlkERTs_draw_49{34.61538461538461%{stroke-dashoffset: 15}73.07692307692307%{ stroke-dashoffset: 0;}100%{ stroke-dashoffset: 0;}}</style></svg>
